<svg width="55" height="56" viewBox="0 0 55 56" fill="none" xmlns="http://www.w3.org/2000/svg">
<path d="M0.193604 8.55121C0.193604 8.55121 14.1609 2.48594 27.4816 2.57767C40.8022 2.66939 54.8108 8.67963 54.8108 8.67963C54.8108 8.67963 42.2354 -0.0502306 27.4724 0.00021781C11.0721 0.0552524 0.202771 8.54434 0.202771 8.54434" fill="#1D1D1B"/>
<path d="M54.7881 8.66357C54.7881 8.66357 53.0935 23.7981 46.3861 35.2934C39.6788 46.7888 27.4863 55.9543 27.4863 55.9543C27.4863 55.9543 41.3184 49.396 48.6265 36.5684C56.7441 22.3167 54.795 8.66587 54.795 8.66587" fill="#1D1D1B"/>
<path d="M0.212033 8.56958C0.212033 8.56958 1.90893 23.7041 8.61398 35.1994C15.319 46.6948 27.4908 55.9406 27.4908 55.9406C27.4908 55.9406 13.6909 49.3021 6.37361 36.4744C-1.74399 22.225 0.205154 8.57187 0.205154 8.57187" fill="#1D1D1B"/>
<path d="M12.0329 27.7124C12.8859 26.903 14.1654 25.5821 15.2432 24.3943L18.2242 21.1312L15.1629 16.3845C14.2984 15.0636 13.5945 13.9836 12.8698 13.1741C12.1452 12.3646 11.5307 12.0138 10.7785 11.8258L10.8014 11.5024C11.5628 11.5024 13.2849 11.5575 14.8052 11.5575C16.4563 11.5575 18.2678 11.53 18.8594 11.5024V11.8258C17.7748 12.1239 16.8507 12.6352 16.6902 13.4172C16.7842 14.1464 17.2588 15.0086 17.7794 15.9534C18.2999 16.8981 19.0796 18.0837 20.4371 20.1337C22.549 17.8406 24.7344 15.6025 24.473 13.6052C24.3514 12.6628 23.6451 12.0688 22.7898 11.8258L22.8448 11.5024C23.6085 11.53 25.3673 11.5575 27.0137 11.5575C28.268 11.5575 29.1922 11.5575 30.208 11.5024L30.2539 11.8533C29.3137 12.2316 28.3162 12.931 27.1192 14.1464C26.0116 15.2792 24.716 16.7353 23.2989 18.274L20.9622 20.8629L23.9111 25.2588C25.138 27.0658 26.0598 28.3063 26.8922 29.0355C27.4019 29.5318 28.0151 29.9092 28.6877 30.1408L28.6602 30.4389C27.6994 30.4114 26.4359 30.3564 24.9912 30.3564C23.636 30.3564 23.0673 30.3839 21.9826 30.4389L21.9437 30.1408C22.9412 29.9253 22.8311 29.3543 22.6316 28.6847C22.3495 27.756 21.6433 26.4191 20.1092 23.993L18.7356 21.9131C16.3622 24.4745 14.3902 26.5796 14.6332 28.4393C14.7387 29.2488 15.406 29.8152 16.2751 30.1385L16.2476 30.4366C15.4473 30.3816 13.8582 30.3541 12.175 30.3541C10.9528 30.3541 9.80395 30.4091 8.7881 30.4619L8.74683 30.1385C9.83835 29.6272 10.8267 28.8452 12.0329 27.7124Z" fill="#1D1D1B"/>
<path d="M28.1696 28.0564C28.1559 27.7423 28.8576 26.1119 29.4584 24.6947L29.917 24.8805C30.1828 26.1505 30.8715 27.2928 31.8707 28.1206C32.882 28.9553 35.5236 29.6776 36.755 29.7075C39.0642 29.7648 42.3387 27.5978 42.3387 25.3047C42.3387 22.4544 39.6145 21.8306 37.0646 21.3766C35.253 21.0556 32.4325 20.1475 31.4809 19.15C30.6795 18.3567 30.2154 17.2847 30.1853 16.1575C30.1532 14.4033 31.3892 13.3438 32.6527 12.4358C34.8036 10.8879 37.5163 10.6013 40.3667 10.8031C43.217 11.0049 44.9919 11.7868 46.0994 12.4289C45.9022 13.4837 45.7188 14.0616 45.3198 15.6392L44.8612 15.4696C44.6318 14.3551 44.4025 13.7841 43.4853 13.142C42.3708 12.3555 41.4055 11.7455 39.3073 11.7662C35.8676 11.8143 32.7765 12.8646 32.82 15.3457C32.8338 16.2079 33.1044 16.6046 33.6433 17.2238C34.4046 18.0332 37.8741 18.5286 40.5387 19.2371C43.2491 19.9549 45.0538 21.8238 44.9712 24.4379C44.8887 27.052 43.3661 28.4485 42.0567 29.3658C40.7473 30.283 38.7615 30.7027 36.5532 30.7027C32.1849 30.705 29.362 28.5426 28.1696 28.0564Z" fill="#1D1D1B"/>
<path d="M19.6829 38.2447C18.2314 36.7359 17.4448 34.6721 17.4448 32.379C17.4448 28.8957 19.2793 25.6303 22.3452 23.4909C24.4059 21.9189 26.9217 21.0593 29.5135 21.0418C30.6369 21.0219 31.7526 21.2305 32.7929 21.6551C33.8332 22.0796 34.7763 22.7112 35.565 23.5115C37.0784 25.0479 37.8581 27.1598 37.8581 29.4736C37.8581 32.849 36.1635 35.9493 33.2879 38.0888C31.3938 39.6986 28.8255 40.8635 26.1288 40.8635C23.4963 40.8635 21.1964 39.8361 19.6829 38.2447ZM34.8724 29.3016C34.8724 25.4331 32.5793 22.5805 29.0342 21.7023C23.9893 23.0185 20.4396 27.5176 20.4396 32.4019C20.4396 36.4079 22.9804 39.3179 26.3696 40.1686C31.4236 38.7653 34.8724 34.2662 34.8724 29.2993V29.3016Z" fill="#1D1D1B"/>
</svg>
